<svg width="64" height="64" viewBox="0 0 64 64" fill="none" xmlns="http://www.w3.org/2000/svg">
<rect width="64" height="64" rx="12" fill="#047654"/>
<path d="M46.704 48V27.136C46.704 25.344 46.4267 23.936 45.872 22.912C45.3173 21.8453 44.3573 21.312 42.992 21.312C42.1813 21.312 41.3493 21.5467 40.496 22.016C39.6853 22.4427 38.9387 23.0827 38.256 23.936C37.5733 24.7893 37.0187 25.8133 36.592 27.008C36.1653 28.2027 35.952 29.5253 35.952 30.976V48H28.72V27.136C28.72 25.344 28.4427 23.936 27.888 22.912C27.3333 21.8453 26.3733 21.312 25.008 21.312C24.1547 21.312 23.3013 21.568 22.448 22.08C21.6373 22.5493 20.8907 23.2533 20.208 24.192C19.568 25.1307 19.0347 26.2827 18.608 27.648C18.224 28.9707 18.032 30.464 18.032 32.128V48H10.736V31.872C10.736 29.312 10.5653 27.1787 10.224 25.472C9.88267 23.7227 9.52 22.3147 9.136 21.248C8.66667 20.0107 8.15467 19.008 7.6 18.24L13.36 15.936C13.7867 16.4053 14.2133 16.9813 14.64 17.664C14.9813 18.2613 15.3227 19.008 15.664 19.904C16.0053 20.7573 16.2827 21.7387 16.496 22.848C17.5627 20.288 19.056 18.4533 20.976 17.344C22.9387 16.192 25.008 15.616 27.184 15.616C29.36 15.616 31.0453 16.1707 32.24 17.28C33.4773 18.3893 34.3947 19.8187 34.992 21.568C36.144 19.4347 37.616 17.92 39.408 17.024C41.2427 16.0853 43.1627 15.616 45.168 15.616C46.832 15.616 48.2187 15.8933 49.328 16.448C50.48 16.96 51.376 17.7067 52.016 18.688C52.6987 19.6267 53.1893 20.7787 53.488 22.144C53.7867 23.4667 53.936 24.96 53.936 26.624V48H46.704Z" fill="white"/>
</svg>
